<?xml version="1.0" encoding="UTF-8"?>
<svg version="1.1" xmlns="http://www.w3.org/2000/svg" width="65" height="75">
<path d="M0 0 C2.78264445 2.17833278 3.90085742 4.63128038 5.1875 7.875 C5.53167969 8.71804688 5.87585938 9.56109375 6.23046875 10.4296875 C7.04734472 13.15813616 7.31432472 15.17107748 7 18 C4.625 20.8125 4.625 20.8125 2 23 C1.34 23 0.68 23 0 23 C6.37579192 33.16344022 6.37579192 33.16344022 16.05078125 39.80078125 C16.69402344 39.86652344 17.33726563 39.93226562 18 40 C19.70884005 38.37660195 21.37446717 36.70680947 23 35 C25.84446661 33.68618807 27.09563134 34.02691845 30.1640625 34.890625 C31.30617187 35.33921875 32.44828125 35.7878125 33.625 36.25 C34.77226563 36.68828125 35.91953125 37.1265625 37.1015625 37.578125 C40 39 40 39 42 42 C41.63583965 46.88305928 40.50497233 52.78109923 38 57 C31.86449508 60.31829486 25.51183155 58.40835599 19 57 C6.66418419 53.10447922 -4.98563211 44.17923714 -11.01904297 32.71484375 C-14.76645282 25.20807059 -17.29965928 18.53347526 -17.125 10.0625 C-17.10695313 8.91910156 -17.08890625 7.77570312 -17.0703125 6.59765625 C-17.03550781 5.31181641 -17.03550781 5.31181641 -17 4 C-11.17648148 1.42421296 -6.50573345 -0.55367944 0 0 Z " fill="#FBD70A" transform="translate(21,5)"/>
<path d="M0 0 C1.32 0 2.64 0 4 0 C4 0.66 4 1.32 4 2 C5.1446875 2.2165625 5.1446875 2.2165625 6.3125 2.4375 C9 3 9 3 12 4 C12 4.66 12 5.32 12 6 C16.73879768 7.14850697 21.46291362 7.32901557 26.3125 7.5625 C27.14845703 7.60568359 27.98441406 7.64886719 28.84570312 7.69335938 C30.89696935 7.79885307 32.9484648 7.89987315 35 8 C34 10 34 10 32.35546875 10.66796875 C23.75078005 11.88090165 14.49338092 9.11691679 7 5 C6.30648438 4.62101562 5.61296875 4.24203125 4.8984375 3.8515625 C3.25121847 2.92623229 1.62312602 1.96696869 0 1 C0 0.67 0 0.34 0 0 Z " fill="#F6DB41" transform="translate(24,53)"/>
<path d="M0 0 C0.66 0 1.32 0 2 0 C3.19287411 3.87684087 4 6.91621923 4 11 C4.66 11 5.32 11 6 11 C6 12.32 6 13.64 6 15 C6.66 15 7.32 15 8 15 C8.3403125 16.1446875 8.3403125 16.1446875 8.6875 17.3125 C9.77878596 20.18340701 9.77878596 20.18340701 12.5 21.4375 C15.76590347 23.47868967 16.10749117 25.34882752 17 29 C8.54067392 22.40172565 3.04264455 14.36288939 0 4 C0 2.68 0 1.36 0 0 Z " fill="#F4DB3F" transform="translate(5,22)"/>
<path d="M0 0 C1.98 0.66 3.96 1.32 6 2 C6.80967438 4.91482778 7.21845993 6.46113217 6.0625 9.3125 C5.5365625 10.1478125 5.5365625 10.1478125 5 11 C4.67 8.69 4.34 6.38 4 4 C2.68 3.67 1.36 3.34 0 3 C0 2.01 0 1.02 0 0 Z " fill="#F7E149" transform="translate(56,43)"/>
<path d="M0 0 C0.66 0 1.32 0 2 0 C2.05437607 1.58294782 2.09296271 3.16644256 2.125 4.75 C2.14820313 5.63171875 2.17140625 6.5134375 2.1953125 7.421875 C1.99139502 10.1135858 1.36551721 11.69904974 0 14 C0.03480469 13.06027344 0.03480469 13.06027344 0.0703125 12.1015625 C0.08835938 11.28429688 0.10640625 10.46703125 0.125 9.625 C0.14820313 8.81289063 0.17140625 8.00078125 0.1953125 7.1640625 C0.21370051 4.78657757 0.21370051 4.78657757 -2 3 C-1.34 2.01 -0.68 1.02 0 0 Z " fill="#F7DA23" transform="translate(59,47)"/>
<path d="M0 0 C0.66 0.33 1.32 0.66 2 1 C2 2.32 2 3.64 2 5 C-2.43076923 7.09230769 -2.43076923 7.09230769 -5.3125 6.625 C-5.869375 6.41875 -6.42625 6.2125 -7 6 C-7 5.01 -7 4.02 -7 3 C-5.02 3.495 -5.02 3.495 -3 4 C-2.01 2.68 -1.02 1.36 0 0 Z " fill="#F7DD43" transform="translate(42,41)"/>
<path d="M0 0 C2.375 0.625 2.375 0.625 5 2 C6.3125 5.125 6.3125 5.125 7 8 C5.8274869 7.04882866 4.66212985 6.08882991 3.5 5.125 C2.8503125 4.59132813 2.200625 4.05765625 1.53125 3.5078125 C1.0259375 3.01023438 0.520625 2.51265625 0 2 C0 1.34 0 0.68 0 0 Z " fill="#F7DA2F" transform="translate(15,43)"/>
<path d="M0 0 C0.66 0 1.32 0 2 0 C2 0.66 2 1.32 2 2 C2.66 2.33 3.32 2.66 4 3 C2.625 4.5 2.625 4.5 1 6 C0.34 6 -0.32 6 -1 6 C-0.67 4.02 -0.34 2.04 0 0 Z " fill="#F7DF30" transform="translate(22,22)"/>
<path d="M0 0 C2.31 1.98 4.62 3.96 7 6 C6.01 6.33 5.02 6.66 4 7 C2 6 2 6 0.875 2.9375 C0.58625 1.968125 0.2975 0.99875 0 0 Z " fill="#F7DD42" transform="translate(25,36)"/>
</svg>
