<?xml version="1.0" encoding="UTF-8"?>
<svg version="1.1" xmlns="http://www.w3.org/2000/svg" width="96" height="71">
<path d="M0 0 C5.56442543 4.57519424 8.67438321 10.44252246 9.76953125 17.56640625 C10.000989 32.35866073 -1.71793991 46.43773538 -10.30078125 57.58984375 C-12.5614717 59.65395242 -14.18342376 59.98675679 -17.1875 60.3125 C-22.86326096 53.95004204 -27.65683184 47.30757559 -32.125 40.0625 C-32.59719971 39.30662598 -33.06939941 38.55075195 -33.5559082 37.77197266 C-38.48326297 29.62910569 -40.63008975 21.60413544 -38.7578125 12.140625 C-36.7466546 5.73471464 -32.63405767 1.21540399 -26.7890625 -2.01171875 C-16.8306588 -6.37809576 -9.3635796 -4.9571892 0 0 Z M-19 13.625 C-21.04853113 15.13087401 -21.04853113 15.13087401 -22.1875 16.3125 C-22.55145977 20.17047355 -22.74757535 22.47238698 -20.5625 25.75 C-17.47064769 27.78411336 -15.82382575 27.91855429 -12.1875 27.3125 C-9.81437702 25.51662315 -8.54138856 24.04386969 -7.25 21.375 C-7.15371372 18.19755268 -8.19997507 16.74882089 -10.1875 14.3125 C-13.81948642 12.41755056 -15.23261677 11.86688783 -19 13.625 Z " fill="#FDD70A" transform="translate(65.1875,7.6875)"/>
</svg>
